<svg xmlns="http://www.w3.org/2000/svg" viewBox="0 0 512 512" width="512" height="512">
  <defs>
    <!-- Gradiente do Mar (Fundo) -->
    <linearGradient id="oceanGrad" x1="0%" y1="0%" x2="0%" y2="100%">
      <stop offset="0%" style="stop-color:#0284c7;stop-opacity:1" /> <!-- Sky Blue -->
      <stop offset="100%" style="stop-color:#0c4a6e;stop-opacity:1" /> <!-- Deep Ocean -->
    </linearGradient>

    <!-- Gradiente da Estrela (Laranja para Amarelo) -->
    <radialGradient id="starfishGrad" cx="50%" cy="50%" r="50%" fx="50%" fy="50%">
      <stop offset="0%" style="stop-color:#fbbf24;stop-opacity:1" /> <!-- Amber/Yellow Center -->
      <stop offset="60%" style="stop-color:#f59e0b;stop-opacity:1" /> <!-- Orange Middle -->
      <stop offset="100%" style="stop-color:#ea580c;stop-opacity:1" /> <!-- Deep Orange Tips -->
    </radialGradient>

    <!-- Sombra suave para dar profundidade -->
    <filter id="softShadow" x="-20%" y="-20%" width="140%" height="140%">
      <feDropShadow dx="2" dy="4" stdDeviation="6" flood-color="#000" flood-opacity="0.25"/>
    </filter>
  </defs>

  <!-- Fundo Circular (Ícone de App) -->
  <circle cx="256" cy="256" r="256" fill="url(#oceanGrad)" />

  <!-- Bolhas sutis no fundo para ambientação -->
  <circle cx="100" cy="120" r="12" fill="white" opacity="0.15" />
  <circle cx="400" cy="380" r="18" fill="white" opacity="0.1" />
  <circle cx="420" cy="100" r="8" fill="white" opacity="0.15" />
  <circle cx="80" cy="350" r="25" fill="white" opacity="0.1" />

  <!-- A Estrela do Mar (Forma Orgânica) -->
  <g filter="url(#softShadow)">
    <!-- Braços arredondados e orgânicos -->
    <path d="M256 60 
             C270 120, 300 180, 360 190 
             C430 200, 460 210, 470 240 
             C460 270, 400 290, 360 320 
             C330 350, 340 420, 320 460 
             C300 490, 270 420, 256 380 
             C242 420, 212 490, 192 460 
             C172 420, 182 350, 152 320 
             C112 290, 52 270, 42 240 
             C52 210, 82 200, 152 190 
             C212 180, 242 120, 256 60 Z" 
          fill="url(#starfishGrad)" 
          stroke="#c2410c" 
          stroke-width="2" 
          stroke-linejoin="round"/>
    
    <!-- Textura da Estrela (Poros/Detalhes) -->
    <!-- Centro -->
    <circle cx="256" cy="256" r="8" fill="#fff7ed" opacity="0.6" />
    
    <!-- Braço Superior -->
    <circle cx="256" cy="150" r="5" fill="#fff7ed" opacity="0.5" />
    <circle cx="256" cy="100" r="4" fill="#fff7ed" opacity="0.4" />
    
    <!-- Braço Direito -->
    <circle cx="360" cy="220" r="5" fill="#fff7ed" opacity="0.5" />
    <circle cx="420" cy="230" r="4" fill="#fff7ed" opacity="0.4" />
    
    <!-- Braço Esquerdo -->
    <circle cx="152" cy="220" r="5" fill="#fff7ed" opacity="0.5" />
    <circle cx="92" cy="230" r="4" fill="#fff7ed" opacity="0.4" />
    
    <!-- Braço Inf Direito -->
    <circle cx="320" cy="350" r="5" fill="#fff7ed" opacity="0.5" />
    <circle cx="300" cy="410" r="4" fill="#fff7ed" opacity="0.4" />

    <!-- Braço Inf Esquerdo -->
    <circle cx="192" cy="350" r="5" fill="#fff7ed" opacity="0.5" />
    <circle cx="212" cy="410" r="4" fill="#fff7ed" opacity="0.4" />
  </g>
</svg>